<?xml version="1.0" encoding="utf-8"?>
<!-- Generator: Adobe Illustrator 23.0.4, SVG Export Plug-In . SVG Version: 6.00 Build 0)  -->
<svg version="1.1" id="Layer_1" xmlns="http://www.w3.org/2000/svg" xmlns:xlink="http://www.w3.org/1999/xlink" x="0px" y="0px"
	 viewBox="0 0 494.5 381.6" style="enable-background:new 0 0 494.5 381.6;" xml:space="preserve">
<style type="text/css">
	.st0{fill:#CCCCCC;}
	.st1{clip-path:url(#SVGID_2_);}
</style>
<title>solarie-closedgrey</title>
<g>
	<rect x="71.7" y="269.9" class="st0" width="77.3" height="13"/>
</g>
<g>
	<g>
		<defs>
			<rect id="SVGID_1_" x="-607.5" y="-188.5" width="1366" height="768"/>
		</defs>
		<clipPath id="SVGID_2_">
			<use xlink:href="#SVGID_1_"  style="overflow:visible;"/>
		</clipPath>
		<g class="st1">
			<path class="st0" d="M444.5,325.5c-0.4-5.7-3.8-10.7-9-13c0,0-70-26-72-29s-20-4-20-4s-271,2-276,0s-9,7-9,7l9,39c-2,3,9,15,9,15
				c27,22,67,41,67,41s272-1,276,0s12-9,12-9S445.5,335.5,444.5,325.5 M129.5,316.5l-53-28l265-2c0,0,10,3,14,5c8,4,67,25,67,25
				H129.5z"/>
		</g>
	</g>
</g>
<g id="Layer_3">
	<path class="st0" d="M75.5,280c0,0,4.9-30.8,31-28.9c22.7,1.7,19.7,53.6,29,56s301.5,5.1,303.8-0.4s-14.4-76.8-51.2-76.9
		s-256.6,0.1-276.4,0.1S75,242,63.7,263.7C52.8,284.7,75.5,280,75.5,280z"/>
</g>
</svg>
