<svg xmlns="http://www.w3.org/2000/svg" xmlns:xlink="http://www.w3.org/1999/xlink" viewBox="0 0 494.55 381.57"><defs><style>.cls-1{fill:none;}.cls-2{fill:#999;}.cls-3{clip-path:url(#clip-path);}</style><clipPath id="clip-path" transform="translate(-607.5 -188.5)"><rect class="cls-1" width="1366" height="768"/></clipPath></defs><title>solarie-closed</title><g id="Layer_2" data-name="Layer 2"><rect class="cls-2" x="121.65" y="269.86" width="77.3" height="13.02"/></g><g id="Layer_1" data-name="Layer 1"><g class="cls-3"><path class="cls-2" d="M1102,514a15.41,15.41,0,0,0-9-13s-70-26-72-29-20-4-20-4-271,2-276,0-9,7-9,7l9,39c-2,3,9,15,9,15,27,22,67,41,67,41s272-1,276,0,12-9,12-9,14-37,13-47m-315-9-53-28,265-2s10,3,14,5c8,4,67,25,67,25Z" transform="translate(-607.5 -188.5)"/><path class="cls-2" d="M799,343c12-60-35-76-35-76s-59-22-79,37,44,78,44,78,23.8,6.29,43.52-4.84S799,343,799,343Z" transform="translate(-607.5 -188.5)"/><path class="cls-2" d="M721,391s-54-11-52-79c0,0,12-54,57-59s62,8,80,37c0,0,10,14,5,53l18.5,1.5s2-17,42-22c0,0-40,2-45-27,0,0,4-27,31-39,0,0-39,22-54,2,0,0-16-10,5-51,0,0-19,33-44,30,0,0-22-1-23-49,0,0,3,36-21,48,0,0-24,9-46-29,0,0,18,19,7,49,0,0-14,22-55,0,0,0,32,19,29,43,0,0-4,24-48,23,0,0,41-1,48,26,0,0,2,26-30,41,0,0,40-19,52-3,0,0,18,14-2,51,0,0,22-31,38-29l9-16Z" transform="translate(-607.5 -188.5)"/></g></g><g id="Layer_3" data-name="Layer 3"><path class="cls-2" d="M733,468.46s4.87-30.78,31.05-28.87c22.73,1.66,19.66,53.59,29,56s301.49,5.11,303.84-.37-14.4-76.79-51.25-76.94-256.62.07-276.44.07-36.67,12.14-48,33.88C710.26,473.16,733,468.46,733,468.46Z" transform="translate(-607.5 -188.5)"/><path class="cls-2" d="M827.6,347.89l4.18-8.38-20.15-2s-19,60.32-64.13,56.46l-31.4-4.39-2.22,16.14a7.13,7.13,0,0,1-1,2.5c-.48.87,5.76,1.07,9.41,19.65a36.3,36.3,0,0,1,10.82-8.91,37.24,37.24,0,0,1,19.78-13s5.52-1.22,12.83,3.84A84.57,84.57,0,0,1,783.09,408a56.8,56.8,0,0,1,6.3-14.32s20.4-23.43,56.33,6.13C845.72,399.84,820,370.84,827.6,347.89Z" transform="translate(-607.5 -188.5)"/></g></svg>