<svg id="Layer_2" data-name="Layer 2" xmlns="http://www.w3.org/2000/svg" viewBox="0 0 494.55 381.57"><defs><style>.cls-1{fill:#eee;}</style></defs><title>whitetan</title><path class="cls-1" d="M1003,409.5l-12,36s-253.5.5-258.5-3.5S754,390,759,387s30.28-19.4,49,4c16,20,15.5,20,15.5,20l263.5-2c18-30-30-53-30-53s-237-.5-278,2.5-65,93-65,93-.5,3.5,10.5,7.5,273,0,273,0,12-3,11-9,11.5-43,11.5-43" transform="translate(-607.5 -188.5)"/><path class="cls-1" d="M1102,514a15.41,15.41,0,0,0-9-13s-70-26-72-29-20-4-20-4-271,2-276,0-9,7-9,7l9,39c-2,3,9,15,9,15,27,22,67,41,67,41s272-1,276,0,12-9,12-9S1103,524,1102,514Zm-315-9-53-28,265-2s10,3,14,5c8,4,67,25,67,25Z" transform="translate(-607.5 -188.5)"/><path class="cls-1" d="M729,382s-64-19-44-78,79-37,79-37,47,16,35,76C799,343,753.5,341.5,729,382Z" transform="translate(-607.5 -188.5)"/><path class="cls-1" d="M721,391s-54-11-52-79c0,0,12-54,57-59s62,8,80,37c0,0,10,14,5,53l18.5,1.5s2-17,42-22c0,0-40,2-45-27,0,0,4-27,31-39,0,0-39,22-54,2,0,0-16-10,5-51,0,0-19,33-44,30,0,0-22-1-23-49,0,0,3,36-21,48,0,0-24,9-46-29,0,0,18,19,7,49,0,0-14,22-55,0,0,0,32,19,29,43,0,0-4,24-48,23,0,0,41-1,48,26,0,0,2,26-30,41,0,0,40-19,52-3,0,0,18,14-2,51,0,0,22-31,38-29l9-16Z" transform="translate(-607.5 -188.5)"/></svg>